<svg width="328" height="20" viewBox="0 0 328 20" fill="none" xmlns="http://www.w3.org/2000/svg">
<path d="M105.709 15V4.81818H109.339C110.131 4.81818 110.787 4.96236 111.307 5.25071C111.828 5.53906 112.217 5.93347 112.476 6.43395C112.734 6.93111 112.864 7.49124 112.864 8.11435C112.864 8.74077 112.733 9.30421 112.471 9.80469C112.212 10.3018 111.821 10.6963 111.297 10.9879C110.777 11.2763 110.123 11.4205 109.334 11.4205H106.838V10.1179H109.195C109.695 10.1179 110.101 10.0317 110.413 9.85938C110.724 9.68371 110.953 9.44508 111.099 9.14347C111.244 8.84186 111.317 8.49882 111.317 8.11435C111.317 7.72988 111.244 7.38849 111.099 7.0902C110.953 6.7919 110.722 6.55824 110.408 6.3892C110.096 6.22017 109.685 6.13565 109.175 6.13565H107.246V15H105.709ZM117.666 15.1541C116.95 15.1541 116.325 14.9901 115.792 14.6619C115.258 14.3338 114.844 13.8748 114.549 13.2848C114.254 12.6948 114.106 12.0054 114.106 11.2166C114.106 10.4245 114.254 9.73177 114.549 9.13849C114.844 8.54522 115.258 8.08452 115.792 7.75639C116.325 7.42827 116.95 7.2642 117.666 7.2642C118.382 7.2642 119.007 7.42827 119.54 7.75639C120.074 8.08452 120.488 8.54522 120.783 9.13849C121.078 9.73177 121.226 10.4245 121.226 11.2166C121.226 12.0054 121.078 12.6948 120.783 13.2848C120.488 13.8748 120.074 14.3338 119.54 14.6619C119.007 14.9901 118.382 15.1541 117.666 15.1541ZM117.671 13.9062C118.135 13.9062 118.52 13.7836 118.824 13.5384C119.129 13.2931 119.355 12.9666 119.501 12.5589C119.65 12.1513 119.724 11.7022 119.724 11.2116C119.724 10.7244 119.65 10.277 119.501 9.86932C119.355 9.45833 119.129 9.12855 118.824 8.87997C118.52 8.63139 118.135 8.5071 117.671 8.5071C117.204 8.5071 116.816 8.63139 116.508 8.87997C116.203 9.12855 115.976 9.45833 115.827 9.86932C115.681 10.277 115.608 10.7244 115.608 11.2116C115.608 11.7022 115.681 12.1513 115.827 12.5589C115.976 12.9666 116.203 13.2931 116.508 13.5384C116.816 13.7836 117.204 13.9062 117.671 13.9062ZM124.308 15L122.061 7.36364H123.597L125.094 12.9716H125.168L126.67 7.36364H128.206L129.697 12.9467H129.772L131.258 7.36364H132.795L130.552 15H129.036L127.485 9.48651H127.371L125.82 15H124.308ZM137.264 15.1541C136.512 15.1541 135.864 14.9934 135.32 14.6719C134.78 14.3471 134.362 13.8913 134.067 13.3047C133.776 12.7147 133.63 12.0237 133.63 11.2315C133.63 10.4493 133.776 9.75994 134.067 9.16335C134.362 8.56676 134.773 8.10109 135.3 7.76633C135.831 7.43158 136.45 7.2642 137.16 7.2642C137.591 7.2642 138.008 7.33546 138.413 7.47798C138.817 7.6205 139.18 7.84422 139.501 8.14915C139.823 8.45407 140.076 8.85014 140.262 9.33736C140.448 9.82126 140.54 10.4096 140.54 11.1023V11.6293H134.47V10.5156H139.084C139.084 10.1245 139.004 9.77817 138.845 9.47656C138.686 9.17164 138.462 8.93134 138.174 8.75568C137.889 8.58002 137.554 8.49219 137.17 8.49219C136.752 8.49219 136.387 8.59493 136.076 8.80043C135.768 9.0026 135.529 9.26776 135.36 9.59588C135.194 9.92069 135.111 10.2737 135.111 10.6548V11.5249C135.111 12.0353 135.201 12.4695 135.38 12.8274C135.562 13.1854 135.816 13.4588 136.141 13.6477C136.465 13.8333 136.845 13.9261 137.279 13.9261C137.561 13.9261 137.818 13.8864 138.05 13.8068C138.282 13.724 138.482 13.6013 138.651 13.4389C138.82 13.2765 138.949 13.076 139.039 12.8374L140.446 13.0909C140.333 13.5052 140.131 13.8681 139.839 14.1797C139.551 14.4879 139.188 14.7282 138.751 14.9006C138.316 15.0696 137.821 15.1541 137.264 15.1541ZM142.19 15V7.36364H143.627V8.5767H143.706C143.845 8.16572 144.091 7.84257 144.442 7.60724C144.796 7.36861 145.198 7.24929 145.645 7.24929C145.738 7.24929 145.847 7.2526 145.973 7.25923C146.102 7.26586 146.203 7.27415 146.276 7.28409V8.70597C146.217 8.68939 146.111 8.67116 145.958 8.65128C145.806 8.62808 145.653 8.61648 145.501 8.61648C145.149 8.61648 144.836 8.69105 144.561 8.8402C144.289 8.98603 144.074 9.18987 143.915 9.4517C143.756 9.71023 143.676 10.0052 143.676 10.3366V15H142.19ZM150.581 15.1541C149.828 15.1541 149.18 14.9934 148.637 14.6719C148.096 14.3471 147.679 13.8913 147.384 13.3047C147.092 12.7147 146.946 12.0237 146.946 11.2315C146.946 10.4493 147.092 9.75994 147.384 9.16335C147.679 8.56676 148.09 8.10109 148.617 7.76633C149.147 7.43158 149.767 7.2642 150.476 7.2642C150.907 7.2642 151.325 7.33546 151.729 7.47798C152.133 7.6205 152.496 7.84422 152.818 8.14915C153.139 8.45407 153.393 8.85014 153.578 9.33736C153.764 9.82126 153.857 10.4096 153.857 11.1023V11.6293H147.786V10.5156H152.4C152.4 10.1245 152.321 9.77817 152.161 9.47656C152.002 9.17164 151.779 8.93134 151.49 8.75568C151.205 8.58002 150.871 8.49219 150.486 8.49219C150.068 8.49219 149.704 8.59493 149.392 8.80043C149.084 9.0026 148.845 9.26776 148.676 9.59588C148.511 9.92069 148.428 10.2737 148.428 10.6548V11.5249C148.428 12.0353 148.517 12.4695 148.696 12.8274C148.879 13.1854 149.132 13.4588 149.457 13.6477C149.782 13.8333 150.161 13.9261 150.595 13.9261C150.877 13.9261 151.134 13.8864 151.366 13.8068C151.598 13.724 151.799 13.6013 151.968 13.4389C152.137 13.2765 152.266 13.076 152.355 12.8374L153.762 13.0909C153.65 13.5052 153.447 13.8681 153.156 14.1797C152.867 14.4879 152.505 14.7282 152.067 14.9006C151.633 15.0696 151.137 15.1541 150.581 15.1541ZM158.365 15.1491C157.748 15.1491 157.198 14.9917 156.714 14.6768C156.234 14.3587 155.856 13.9062 155.581 13.3196C155.309 12.7296 155.173 12.022 155.173 11.1967C155.173 10.3714 155.311 9.66548 155.586 9.07884C155.864 8.49219 156.245 8.04309 156.729 7.73153C157.213 7.41998 157.762 7.2642 158.375 7.2642C158.849 7.2642 159.23 7.34375 159.518 7.50284C159.81 7.65862 160.035 7.84091 160.194 8.04972C160.357 8.25852 160.483 8.44247 160.572 8.60156H160.662V4.81818H162.148V15H160.696V13.8118H160.572C160.483 13.9742 160.353 14.1598 160.184 14.3686C160.019 14.5774 159.79 14.7597 159.498 14.9155C159.207 15.0713 158.829 15.1491 158.365 15.1491ZM158.693 13.8814C159.12 13.8814 159.482 13.7687 159.777 13.5433C160.075 13.3146 160.3 12.9981 160.453 12.5938C160.609 12.1894 160.687 11.7187 160.687 11.1818C160.687 10.6515 160.61 10.1875 160.458 9.78977C160.305 9.39205 160.082 9.08215 159.787 8.86009C159.492 8.63802 159.127 8.52699 158.693 8.52699C158.245 8.52699 157.873 8.64299 157.574 8.875C157.276 9.10701 157.051 9.42353 156.898 9.82457C156.749 10.2256 156.674 10.678 156.674 11.1818C156.674 11.6922 156.751 12.1513 156.903 12.5589C157.056 12.9666 157.281 13.2898 157.579 13.5284C157.881 13.7637 158.252 13.8814 158.693 13.8814ZM168.094 15V4.81818H169.581V8.60156H169.67C169.756 8.44247 169.881 8.25852 170.043 8.04972C170.205 7.84091 170.431 7.65862 170.719 7.50284C171.008 7.34375 171.389 7.2642 171.863 7.2642C172.479 7.2642 173.029 7.41998 173.513 7.73153C173.997 8.04309 174.377 8.49219 174.652 9.07884C174.93 9.66548 175.069 10.3714 175.069 11.1967C175.069 12.022 174.932 12.7296 174.657 13.3196C174.382 13.9062 174.004 14.3587 173.523 14.6768C173.043 14.9917 172.494 15.1491 171.878 15.1491C171.414 15.1491 171.034 15.0713 170.739 14.9155C170.447 14.7597 170.219 14.5774 170.053 14.3686C169.887 14.1598 169.76 13.9742 169.67 13.8118H169.546V15H168.094ZM169.551 11.1818C169.551 11.7187 169.629 12.1894 169.785 12.5938C169.94 12.9981 170.166 13.3146 170.461 13.5433C170.756 13.7687 171.117 13.8814 171.544 13.8814C171.989 13.8814 172.36 13.7637 172.658 13.5284C172.956 13.2898 173.182 12.9666 173.334 12.5589C173.49 12.1513 173.568 11.6922 173.568 11.1818C173.568 10.678 173.492 10.2256 173.339 9.82457C173.19 9.42353 172.965 9.10701 172.663 8.875C172.365 8.64299 171.992 8.52699 171.544 8.52699C171.114 8.52699 170.749 8.63802 170.451 8.86009C170.156 9.08215 169.932 9.39205 169.78 9.78977C169.627 10.1875 169.551 10.6515 169.551 11.1818ZM177.418 17.8636C177.196 17.8636 176.994 17.8454 176.812 17.8089C176.63 17.7758 176.494 17.7393 176.404 17.6996L176.762 16.4815C177.034 16.5545 177.276 16.5859 177.488 16.576C177.7 16.5661 177.887 16.4865 178.05 16.3374C178.216 16.1882 178.361 15.9446 178.487 15.6065L178.671 15.0994L175.877 7.36364H177.468L179.402 13.2898H179.482L181.416 7.36364H183.011L179.864 16.0192C179.719 16.4169 179.533 16.7533 179.308 17.0284C179.082 17.3068 178.814 17.5156 178.502 17.6548C178.191 17.794 177.829 17.8636 177.418 17.8636Z" fill="#666C7B"/>
<path d="M194.579 14.047C193.803 14.6822 192.807 15 191.59 15C190.699 15 189.928 14.8815 189.278 14.6436C188.627 14.4062 188.035 14.0055 187.5 13.442L188.916 11.9503C189.545 12.6133 190.442 12.9447 191.606 12.9447C192.256 12.9447 192.752 12.8176 193.093 12.5635C193.434 12.3092 193.604 11.9449 193.604 11.4696C193.604 11.061 193.489 10.7349 193.258 10.4917C193.059 10.2928 192.723 10.1602 192.251 10.0939L190.914 9.87845C189.97 9.73469 189.246 9.4086 188.743 8.90055C188.208 8.34819 187.94 7.57459 187.94 6.58011C187.94 5.50817 188.292 4.64377 188.995 3.98619C189.697 3.32861 190.646 3 191.842 3C193.352 3 194.559 3.45868 195.461 4.37569L194.076 5.81768C193.552 5.27612 192.786 5.00552 191.779 5.00552C191.223 5.00552 190.799 5.14641 190.505 5.42818C190.211 5.70994 190.065 6.0663 190.065 6.49724C190.065 6.85071 190.169 7.13248 190.379 7.34254C190.62 7.57458 190.961 7.72376 191.401 7.79005L192.739 8.00552C193.693 8.14929 194.406 8.45844 194.878 8.9337C195.455 9.49724 195.744 10.326 195.744 11.4199C195.744 12.5358 195.356 13.4117 194.579 14.047Z" fill="#666C7B"/>
<path fill-rule="evenodd" clip-rule="evenodd" d="M203.311 13.9392C202.66 14.6465 201.811 15 200.762 15C199.724 15 198.88 14.6465 198.229 13.9392C197.88 13.5555 197.629 13.0852 197.498 12.5718C197.367 12.058 197.301 11.3925 197.301 10.5746C197.301 9.75666 197.367 9.09368 197.498 8.58563C197.629 8.07723 197.873 7.62431 198.229 7.22652C198.88 6.51922 199.724 6.16575 200.762 6.16575C201.832 6.16575 202.682 6.51922 203.311 7.22652C203.668 7.62431 203.911 8.07759 204.043 8.58563C204.173 9.09368 204.239 9.75666 204.239 10.5746C204.239 11.4033 204.173 12.0746 204.043 12.5884C203.914 13.0978 203.662 13.5633 203.311 13.9392ZM199.818 12.6796C200.059 12.9336 200.374 13.0608 200.762 13.0608C201.161 13.0608 201.481 12.9336 201.722 12.6796C202.037 12.3592 202.194 11.6573 202.194 10.5746C202.194 9.50264 202.037 8.80687 201.722 8.48619C201.48 8.23216 201.161 8.10497 200.762 8.10497C200.374 8.10497 200.059 8.23216 199.818 8.48619C199.504 8.80651 199.347 9.50264 199.347 10.5746C199.347 11.6573 199.504 12.3589 199.818 12.6796Z" fill="#666C7B"/>
<path d="M209.667 13.0773V14.9006H208.503C207.716 14.9006 207.12 14.6577 206.717 14.1713C206.313 13.6848 206.111 13.1047 206.111 12.4309V3.09945H208.156V12.2983C208.156 12.8179 208.398 13.0773 208.88 13.0773H209.667Z" fill="#666C7B"/>
<path d="M213.69 6.51381V14.9006H211.645V6.51381H213.69Z" fill="#666C7B"/>
<path fill-rule="evenodd" clip-rule="evenodd" d="M220.502 14.0884C219.988 14.6962 219.311 15 218.473 15C217.612 15 216.946 14.7402 216.475 14.221C216.118 13.8344 215.887 13.3537 215.783 12.779C215.677 12.2043 215.625 11.4696 215.625 10.5746C215.625 9.69073 215.677 8.96145 215.783 8.38674C215.887 7.81203 216.118 7.33137 216.475 6.94475C216.946 6.42517 217.607 6.16575 218.457 6.16575C219.296 6.16575 219.962 6.45292 220.455 7.02762V3.09945H222.5V14.9006H220.502V14.0884ZM218.323 12.8785C218.517 12.9999 218.761 13.0608 219.055 13.0608C219.349 13.0608 219.592 12.9999 219.786 12.8785C219.98 12.7567 220.124 12.5747 220.219 12.3315C220.314 12.0846 220.378 11.8254 220.408 11.5608C220.439 11.2902 220.455 10.9612 220.455 10.5746C220.455 9.76783 220.363 9.15458 220.18 8.73481C219.996 8.31504 219.621 8.10497 219.055 8.10497C218.761 8.10497 218.517 8.16586 218.323 8.28729C218.129 8.40908 217.987 8.59104 217.898 8.83425C217.809 9.07699 217.748 9.33023 217.717 9.5884C217.686 9.84819 217.67 10.1768 217.67 10.5746C217.67 10.9724 217.686 11.3013 217.717 11.5608C217.749 11.8215 217.81 12.0774 217.898 12.3232C217.988 12.5718 218.129 12.757 218.323 12.8785Z" fill="#666C7B"/>
<path d="M213.706 3.03321V4.79011H211.613V3.03321H213.706Z" fill="#666C7B"/>
</svg>
